<svg width="1024" height="1024" viewBox="0 0 1024 1024" fill="none" xmlns="http://www.w3.org/2000/svg">
  <defs>
    <linearGradient id="face" x1="120" y1="96" x2="904" y2="928" gradientUnits="userSpaceOnUse">
      <stop stop-color="#202833"/>
      <stop offset="1" stop-color="#05070A"/>
    </linearGradient>
    <linearGradient id="pane" x1="270" y1="150" x2="760" y2="840" gradientUnits="userSpaceOnUse">
      <stop stop-color="#39404C"/>
      <stop offset="0.52" stop-color="#10182A"/>
      <stop offset="1" stop-color="#253B67"/>
    </linearGradient>
    <filter id="glow" x="120" y="90" width="790" height="850" color-interpolation-filters="sRGB" filterUnits="userSpaceOnUse">
      <feGaussianBlur stdDeviation="18"/>
    </filter>
  </defs>
  <g>
    <rect x="112" y="92" width="800" height="840" rx="196" fill="url(#face)"/>
    <rect x="112" y="92" width="800" height="840" rx="196" stroke="#79B7FF" stroke-opacity="0.64" stroke-width="12"/>
  </g>
  <g filter="url(#glow)" opacity="0.62">
    <path d="M102 635L461 420L553 584L174 830Z" stroke="#6EB7FF" stroke-width="42"/>
    <path d="M430 164L717 348V842L430 657Z" stroke="#6EB7FF" stroke-width="44"/>
    <path d="M286 369L563 543L492 698L286 563Z" stroke="#6EB7FF" stroke-width="38"/>
    <path d="M686 502L912 389V655L686 819Z" stroke="#6EB7FF" stroke-width="38"/>
  </g>
  <g>
    <path d="M102 635L461 420L553 584L174 830Z" fill="url(#pane)" stroke="#6EB7FF" stroke-width="30" stroke-linejoin="round"/>
    <path d="M430 164L717 348V842L430 657Z" fill="url(#pane)" stroke="#9ACBFF" stroke-width="34" stroke-linejoin="round"/>
    <path d="M286 369L563 543L492 698L286 563Z" fill="url(#pane)" stroke="#7E8CFF" stroke-width="28" stroke-linejoin="round"/>
    <path d="M686 502L912 389V655L686 819Z" fill="url(#pane)" stroke="#7E8CFF" stroke-width="28" stroke-linejoin="round"/>
    <circle cx="512" cy="860" r="54" fill="#76D5FF" stroke="#9ACBFF" stroke-width="18"/>
  </g>
</svg>
